<svg xmlns="http://www.w3.org/2000/svg" version="1.1" xmlns:xlink="http://www.w3.org/1999/xlink" xmlns:svgjs="http://svgjs.dev/svgjs" viewBox="0 0 640 800"><defs><linearGradient x1="50%" y1="0%" x2="50%" y2="100%" id="ccchaos-grad"><stop stop-color="hsl(42, 99%, 57%)" stop-opacity="1" offset="0%"></stop><stop stop-color="hsl(28, 90%, 59%)" stop-opacity="1" offset="100%"></stop></linearGradient></defs><g stroke-width="4.5" stroke="url(#ccchaos-grad)" fill="none" stroke-linecap="round"><path d="M326.69 139.22C335.64 136.7 343.95 134.93 351.59 133.93 359.19 133.31 366.07 133.55 372.2 134.65 380.89 137.4 394.54 147.57 399.85 154.72 403.46 159.99 406.85 165.8 410.31 172.05 414.51 178.43 419.28 185.15 424.94 192.13 431.97 199.09 440.37 206.22 450.35 213.47 461.93 220.59 475.06 227.78 489.54 235.01 504.81 242.04 520.53 249.11 535.94 256.2 550.2 263.09 562.58 270.03 572.19 277.01 578.61 283.81 581.18 290.7 579.67 297.69 574.87 304.54 566.84 311.53 556.53 318.69 545.92 325.74 535.77 332.99 527.63 340.45 523.37 347.84 523.41 355.48 528.28 363.37 538.11 371.23 551.79 379.36 567.92 387.77 584.81 396.16 600.21 404.85 611.99 413.84 618.85 422.82 619.42 431.9 613.83 441.04 603.18 450.18 588.52 459.39 571.69 468.63 554.72 477.85 539.24 487.09 526.71 496.29 518.28 505.45 514.19 514.54 514.25 523.49 518.34 532.35 525.04 541 533.12 549.38 542.05 557.59 549.96 565.43 555.87 572.82 559.69 579.94 560.32 586.52 557.66 592.46 552.18 598.04 543.78 602.91 533.06 607 520.55 610.68 506.81 613.56 492.49 615.61 477.86 617.29 463.53 618.2 449.87 618.38 436.83 618.37 424.77 617.79 413.72 616.73 403.51 615.81 394.19 614.66 385.6 613.43 377.66 612.71 370.15 612.18 362.91 611.99 356 612.66 349.1 613.87 342.07 615.68 335.16 618.51 327.97 622 320.44 626.08 312.92 631.05 305.01 636.44 296.7 642.06 288.39 648.13 279.91 653.9 271.32 659.17 262.79 664.25 254.23 668.45 245.75 671.62 237.41 674.12 229.26 675.36 221.42 675.3 213.84 674.35 206.68 672.08 200.08 668.55 193.81 664.18 188.18 658.68 183.23 652.2 178.59 645.11 174.6 637.25 171.22 628.79 167.9 620.02 164.97 610.87 162.29 601.47 159.23 592.04 156.05 582.52 152.58 573.02 148.27 563.67 143.37 554.42 137.8 545.31 131.26 536.44 124.11 527.73 116.47 519.17 108.35 510.87 100.24 502.68 92.46 494.61 85.14 486.73 78.81 478.91 73.77 471.11 69.91 463.44 67.61 455.74 66.88 447.99 67.14 440.31 68.5 432.52 70.64 424.62 72.64 416.75 74.55 408.72 75.99 400.55 76.18 392.39 75.46 384.06 73.82 375.58 71.01 367.1 67.9 358.67 64.92 350.33 62.08 341.99 60.29 333.76 59.86 325.67 60.63 317.6 63.08 309.7 67.11 302.01 72.24 294.38 78.48 286.99 85.46 279.88 92.53 272.86 99.6 266.16 106.34 259.82 112.21 253.58 117.37 247.72 121.77 242.27 126.42 234.46 132.57 221.09 135.43 215.49 138.89 210.29 150.51 201.42 159.04 197.53 165.7 194.79 173.19 192.18 181.36 189.67 190.07 186.81 199.28 183.97 208.82 181.12 218.69 177.86 228.73 174.56 238.8 171.23 249.04 167.5 259.21 163.77 269.22 160.09 279.31 156.14 289.19 152.34 298.78 148.78 308.41 145.15 317.74 141.93 326.68 139.22" stroke-dasharray="10 5" transform="rotate(0, 320, 400)" opacity="1.00"></path><path d="M316.85 147.6C325.29 145.12 333.12 143.34 340.3 142.3 347.45 141.63 353.94 141.78 359.77 142.74 368.17 145.24 382.28 154.75 388.52 161.52 392.98 166.53 397.53 172.08 402.41 178.09 408.14 184.24 414.62 190.75 422.13 197.54 430.89 204.34 440.96 211.34 452.41 218.48 465.06 225.51 478.85 232.65 493.46 239.84 508.29 246.87 522.97 253.94 536.78 261.04 549.01 267.97 559.02 274.94 566.08 281.95 570.07 288.8 570.45 295.72 567.19 302.73 561.27 309.6 552.78 316.6 542.7 323.73 532.91 330.76 524.04 337.97 517.43 345.35 514.67 352.68 516 360.21 521.78 367.97 531.98 375.7 545.55 383.67 561.14 391.88 577.25 400.09 591.84 408.56 603.02 417.29 609.66 426.01 610.48 434.81 605.58 443.63 595.92 452.46 582.35 461.32 566.5 470.17 550.16 479.01 534.81 487.83 521.84 496.57 512.37 505.26 506.79 513.84 505.07 522.24 507.27 530.55 512.25 538.62 519.01 546.38 527.12 553.97 534.89 561.17 541.35 567.9 547.63 577.34 542.54 592.75 531.41 598.46 521.24 601.67 509.46 604.13 496.65 605.85 483.12 607.26 469.41 607.99 455.93 608.08 442.67 608.05 430.07 607.53 418.25 606.63 407.04 605.89 396.63 604.99 386.97 604.05 377.87 603.63 369.33 603.41 361.2 603.52 353.41 604.44 345.83 605.85 338.33 607.83 330.97 610.74 323.54 614.23 315.98 618.26 308.45 623.09 300.71 628.28 292.76 633.68 284.81 639.48 276.84 645 268.92 650.05 261.04 654.94 253.26 659.01 245.68 662.14 238.21 664.67 231.03 666.04 224.24 666.2 217.64 665.56 211.53 663.68 205.96 660.61 200.63 656.75 195.89 651.81 191.75 645.92 187.76 639.42 184.27 632.16 181.23 624.26 178.06 616.03 175.08 607.37 172.16 598.42 168.7 589.37 164.98 580.19 160.84 570.95 155.83 561.81 150.22 552.71 143.96 543.7 136.86 534.88 129.27 526.18 121.36 517.62 113.17 509.26 105.17 501.02 97.69 492.9 90.8 484.94 85.01 477.05 80.57 469.22 77.31 461.5 75.57 453.79 75.31 446.05 75.94 438.39 77.55 430.66 79.82 422.86 81.87 415.1 83.76 407.23 85.13 399.25 85.27 391.29 84.48 383.2 82.79 375.01 79.95 366.82 76.79 358.72 73.72 350.74 70.74 342.76 68.73 334.91 68.01 327.23 68.42 319.57 70.47 312.1 74.09 304.85 78.84 297.65 84.78 290.7 91.57 284.05 98.6 277.46 105.78 271.19 112.79 265.27 119.09 259.44 124.78 253.97 129.75 248.9 135.29 241.6 142.53 229.04 145.35 223.73 148.22 218.74 157.41 210.04 164.28 206.13 169.7 203.36 175.95 200.7 182.9 198.1 190.38 195.18 198.43 192.26 206.92 189.33 215.77 186.02 224.9 182.67 234.16 179.3 243.64 175.56 253.13 171.83 262.53 168.17 272.03 164.26 281.36 160.51 290.45 157 299.57 153.44 308.39 150.27 316.84 147.6" stroke-dasharray="0 5" transform="rotate(2.2758620689655173, 320, 400)" opacity="0.97"></path><path d="M307.39 155.98C315.36 153.53 322.78 151.75 329.65 150.69 336.51 149.97 342.82 150.02 348.61 150.86 354.43 152.1 359.81 154.13 364.84 156.89 370.05 160.04 375.11 163.88 380.17 168.33 385.71 173.09 391.55 178.37 397.93 184.12 405.15 190.03 413.22 196.31 422.32 202.88 432.47 209.5 443.76 216.33 456.13 223.32 469.27 230.25 483.1 237.29 497.24 244.41 511.08 251.4 524.26 258.44 536.12 265.53 546.13 272.46 553.72 279.44 558.34 286.46 560.11 293.33 558.62 300.27 553.98 307.28 547.3 314.16 538.69 321.15 529.12 328.26 520.32 335.27 512.8 342.43 507.71 349.74 506.37 356.99 508.88 364.43 515.43 372.05 525.92 379.65 539.29 387.46 554.32 395.48 569.65 403.49 583.45 411.73 594.05 420.19 600.46 428.66 601.51 437.15 597.25 445.65 588.54 454.15 576.05 462.64 561.19 471.09 545.57 479.53 530.49 487.9 517.26 496.16 506.96 504.38 500.07 512.44 496.73 520.29 497.09 528.04 500.31 535.52 505.56 542.67 512.56 549.66 519.8 556.24 526.36 562.34 534.03 570.87 534.85 584.58 527.38 589.58 519.65 592.38 510.09 594.5 499.17 595.94 487.23 597.15 474.69 597.76 461.96 597.8 449.1 597.8 436.54 597.38 424.49 596.64 412.78 596.11 401.72 595.46 391.33 594.82 381.37 594.68 371.98 594.76 363.1 595.14 354.53 596.29 346.3 597.9 338.32 600.01 330.5 602.98 322.78 606.47 315.12 610.43 307.5 615.12 299.86 620.13 292.2 625.3 284.53 630.85 277.02 636.11 269.69 640.94 262.38 645.64 255.31 649.58 248.54 652.65 238.68 655.93 221.22 655.91 213.83 652.51 209.19 649.14 205.07 644.73 201.44 639.4 197.8 633.5 194.52 626.82 191.5 619.5 188.2 611.83 184.92 603.69 181.53 595.21 177.5 586.6 173.11 577.79 168.23 568.88 162.5 560.01 156.2 551.12 149.33 542.29 141.77 533.59 133.88 524.97 125.84 516.46 117.73 508.12 109.99 499.89 102.91 491.76 96.56 483.78 91.38 475.87 87.57 468.03 84.93 460.3 83.73 452.59 83.92 444.89 84.88 437.26 86.71 429.61 89.08 421.92 91.15 414.26 92.99 406.54 94.28 398.76 94.35 390.99 93.5 383.14 91.76 375.23 88.89 367.32 85.69 359.53 82.56 351.89 79.46 344.26 77.25 336.78 76.25 329.48 76.31 322.21 77.95 315.14 81.13 308.31 85.46 301.52 91.04 294.99 97.55 288.75 104.46 282.57 111.67 276.7 118.85 271.17 125.51 265.71 131.67 260.59 137.2 255.85 143.67 248.99 152.38 237.13 155.48 232.05 158.15 227.21 165.62 218.61 171.11 214.67 175.43 211.85 180.51 209.12 186.29 206.45 192.53 203.46 199.38 200.47 206.74 197.47 214.45 194.1 222.53 190.71 230.84 187.31 239.38 183.57 248.03 179.86 256.68 176.22 265.44 172.36 274.12 168.66 282.6 165.21 291.13 161.72 299.42 158.61 307.38 155.98" stroke-dasharray="11 3" transform="rotate(4.551724137931035, 320, 400)" opacity="0.93"></path><path d="M299.5 164.36C307.03 161.95 314.15 160.18 320.84 159.09 327.54 158.32 333.84 158.29 339.8 159 345.84 160.1 351.63 161.94 357.29 164.49 363.18 167.41 369.13 170.99 375.29 175.19 381.95 179.67 389.08 184.68 396.85 190.15 405.37 195.8 414.74 201.83 425.04 208.17 436.12 214.57 448.09 221.21 460.8 228.03 473.85 234.81 487.14 241.73 500.26 248.74 512.67 255.66 524.01 262.64 533.7 269.67 541.41 276.58 546.64 283.54 549.01 290.54 548.85 297.41 545.83 304.34 540.2 311.33 533.11 318.21 524.69 325.18 515.86 332.24 508.19 339.22 502.08 346.32 498.48 353.55 498.47 360.73 502.04 368.06 509.25 375.55 519.91 383.01 533.03 390.65 547.47 398.47 562.02 406.28 575.06 414.28 585.08 422.47 591.26 430.66 592.52 438.84 588.86 447 581.06 455.15 569.62 463.26 555.77 471.3 540.93 479.32 526.25 487.24 512.93 495.02 502.01 502.74 494.02 510.28 489.21 517.59 487.83 524.79 489.27 531.7 492.92 538.26 498.58 544.66 504.94 550.64 511.19 556.16 522.27 569.94 511.92 583.78 499.49 585.92 489.48 586.99 478.54 587.52 467.06 587.57 455.14 587.62 443.18 587.33 431.43 586.78 419.76 586.47 408.53 586.08 397.82 585.72 387.38 585.87 377.47 586.22 368.08 586.87 358.93 588.23 350.2 590.01 341.82 592.23 333.59 595.25 325.61 598.73 317.84 602.61 310.12 607.16 302.53 611.97 295.09 616.92 287.64 622.21 280.49 627.24 273.65 631.84 266.83 636.34 260.34 640.15 254.22 643.16 245.32 646.48 229.79 647.08 223.23 644.25 219.02 641.34 215.22 637.44 211.79 632.66 208.21 627.32 204.83 621.22 201.57 614.48 197.89 607.37 194.11 599.78 190.08 591.8 185.37 583.66 180.24 575.27 174.61 566.74 168.21 558.19 161.29 549.59 153.93 540.99 146.07 532.47 138.02 524.01 130.02 515.62 122.14 507.36 114.78 499.18 108.22 491.11 102.48 483.15 97.96 475.27 94.81 467.46 92.77 459.76 92.11 452.09 92.71 444.45 93.97 436.88 95.97 429.31 98.4 421.74 100.46 414.21 102.24 406.64 103.44 399.05 103.42 391.48 102.51 383.86 100.73 376.22 97.85 368.58 94.63 361.1 91.44 353.78 88.24 346.47 85.86 339.35 84.59 332.42 84.3 325.51 85.52 318.82 88.25 312.38 92.12 305.97 97.28 299.82 103.46 293.97 110.15 288.16 117.28 282.65 124.54 277.47 131.46 272.34 138.01 267.54 144.05 263.09 151.46 256.61 161.92 245.32 165.58 240.43 168.4 235.7 174.94 227.14 179.4 223.13 184.86 218.86 199.59 210.12 208.69 205.53 215.25 202.12 222.23 198.69 229.54 195.27 237.06 191.54 244.78 187.85 252.6 184.24 260.54 180.43 268.47 176.8 276.33 173.41 284.22 169.99 291.96 166.95 299.49 164.36" stroke-dasharray="2 12" transform="rotate(6.827586206896552, 320, 400)" opacity="0.90"></path><path d="M294.16 172.74C301.31 170.37 308.2 168.61 314.84 167.5 321.49 166.68 327.92 166.57 334.2 167.17 340.58 168.12 346.9 169.78 353.28 172.12 359.92 174.82 366.79 178.15 374.01 182.07 381.7 186.28 389.94 191.01 398.83 196.2 408.34 201.58 418.6 207.34 429.6 213.42 441.11 219.58 453.2 226 465.65 232.61 478.07 239.22 490.32 245.98 501.98 252.85 512.63 259.66 521.92 266.54 529.35 273.49 534.81 280.34 537.85 287.24 538.24 294.19 536.47 301.03 532.3 307.93 526.05 314.87 518.89 321.73 510.94 328.65 503.04 335.66 496.6 342.59 491.91 349.62 489.73 356.75 490.95 363.84 495.45 371.05 503.19 378.39 513.94 385.71 526.75 393.17 540.57 400.78 554.36 408.38 566.64 416.14 576.11 424.04 582.06 431.95 583.49 439.81 580.4 447.62 573.46 455.41 563.04 463.14 550.21 470.76 536.21 478.35 522.04 485.82 508.79 493.11 497.46 500.34 488.57 507.37 482.48 514.13 479.51 520.8 479.24 527.16 481.23 533.15 485.38 539 490.61 544.43 496.17 549.4 508.9 561.73 506.38 573.97 497.23 575.85 489.33 576.82 480.27 577.33 470.38 577.42 459.86 577.56 448.97 577.42 438 577.07 426.89 576.99 415.97 576.86 405.39 576.78 394.91 577.19 384.86 577.8 375.25 578.69 365.82 580.24 356.8 582.17 348.19 584.49 339.69 587.54 331.53 590.99 323.69 594.79 315.89 599.19 308.35 603.81 301.07 608.54 293.79 613.58 286.92 618.36 280.45 622.75 273.98 627.06 267.92 630.73 262.28 633.66 254.04 637 239.71 638.15 233.56 635.84 227.6 631.65 216.54 618.13 210.94 609.19 206.72 602.65 202.28 595.61 197.52 588.16 192.1 580.52 186.24 572.59 179.9 564.48 172.92 556.31 165.53 548.04 157.83 539.73 149.82 531.47 141.8 523.21 134 515 126.49 506.89 119.63 498.84 113.69 490.86 108.63 482.99 104.79 475.19 102.31 467.46 100.87 459.82 100.7 452.22 101.68 444.68 103.19 437.2 105.33 429.74 107.79 422.3 109.81 414.9 111.49 407.49 112.59 400.1 112.49 392.72 111.52 385.33 109.7 377.96 106.82 370.58 103.59 363.38 100.36 356.38 97.08 349.38 94.54 342.58 93.02 336.01 92.4 329.44 93.21 323.1 95.47 317.02 98.86 310.96 103.56 305.16 109.33 299.66 115.71 294.18 122.67 288.99 129.9 284.13 136.96 279.29 143.82 274.76 150.28 270.55 158.56 264.4 170.93 253.57 175.36 248.81 178.66 244.16 185.04 235.57 188.88 231.49 193.33 227.13 205.37 218.18 212.95 213.5 218.44 210.06 224.39 206.61 230.71 203.17 237.22 199.46 244.01 195.8 251 192.23 258.08 188.48 265.28 184.92 272.5 181.6 279.76 178.26 287 175.28 294.15 172.75" stroke-dasharray="4 11" transform="rotate(9.10344827586207, 320, 400)" opacity="0.87"></path><path d="M292.02 181.12C298.86 178.79 305.6 177.05 312.26 175.92 318.93 175.07 325.58 174.88 332.23 175.36 338.99 176.17 345.87 177.66 352.95 179.8 360.28 182.27 367.95 185.35 376.06 189.01 384.55 192.94 393.61 197.38 403.26 202.28 413.34 207.37 424.01 212.84 435.19 218.65 446.59 224.55 458.26 230.72 469.94 237.1 481.25 243.51 492.06 250.08 501.95 256.77 510.64 263.43 517.79 270.18 523.01 277.01 526.37 283.76 527.45 290.57 526.19 297.43 523.19 304.21 518.24 311.04 511.73 317.91 504.81 324.71 497.56 331.57 490.74 338.49 485.59 345.35 482.29 352.29 481.47 359.31 483.8 366.29 489.1 373.37 497.26 380.55 508 387.71 520.45 394.99 533.64 402.37 546.66 409.75 558.21 417.26 567.14 424.86 572.86 432.47 574.44 440.01 571.87 447.45 565.74 454.89 556.32 462.22 544.51 469.42 531.39 476.59 517.83 483.6 504.81 490.41 493.25 497.17 483.68 503.69 476.51 509.94 471.17 519 475.09 535.18 481.62 542.11 496.47 558.62 482.9 566.95 471.29 567.38 462.45 567.64 453 567.67 443.21 567.53 433.09 567.67 422.93 567.8 412.88 567.99 402.8 568.65 392.98 569.5 383.51 570.6 374.11 572.32 365.08 574.38 356.44 576.79 347.87 579.85 339.67 583.26 331.83 586.96 324.03 591.22 316.55 595.65 309.4 600.16 302.25 604.96 295.58 609.5 289.36 613.67 283.12 617.79 277.33 621.31 271.98 624.16 264.1 627.5 250.23 629.12 244.07 627.28 237.89 623.71 225.69 611.72 219.2 603.62 214.32 597.64 209.17 591.16 203.66 584.25 197.55 577.13 191.03 569.69 184.11 562.03 176.7 554.29 169 546.4 161.14 538.43 153.16 530.47 145.34 522.49 137.9 514.52 130.89 506.61 124.65 498.74 119.4 490.93 115.05 483.2 111.93 475.52 110.1 467.92 109.23 460.39 109.52 452.91 110.83 445.49 112.54 438.12 114.77 430.79 117.22 423.51 119.18 416.26 120.76 409.03 121.74 401.84 121.55 394.66 120.51 387.5 118.67 380.38 115.79 373.26 112.57 366.34 109.32 359.64 105.98 352.93 103.3 346.44 101.56 340.19 100.62 333.94 101.03 327.92 102.82 322.17 105.71 316.42 109.9 310.95 115.2 305.75 121.2 300.57 127.89 295.67 134.98 291.08 142.07 286.49 149.1 282.19 155.88 278.19 162.07 274.18 167.77 270.44 172.93 266.98 179.21 261.84 188.6 252.55 192.33 248.29 195.55 243.9 203.03 235.28 207.75 230.91 213.11 226.14 226.58 216.19 234.55 211.02 240.14 207.33 246.08 203.71 252.29 200.19 258.58 196.51 265.08 193.02 271.73 189.78 278.4 186.51 285.17 183.6 292.01 181.13" stroke-dasharray="6 9" transform="rotate(11.379310344827587, 320, 400)" opacity="0.84"></path><path d="M293.35 189.5C299.94 187.22 306.59 185.5 313.29 184.36 320.03 183.47 326.88 183.21 333.88 183.58 341 184.26 348.35 185.58 356 187.52 363.86 189.77 372.13 192.61 380.83 195.99 389.82 199.65 399.31 203.8 409.27 208.39 419.47 213.19 430.06 218.37 440.91 223.88 451.71 229.5 462.48 235.4 472.94 241.53 482.81 247.7 491.88 254.04 499.82 260.53 506.49 267 511.54 273.59 514.7 280.25 516.18 286.87 515.64 293.56 513.08 300.3 509.22 306.97 503.86 313.7 497.43 320.47 491.01 327.18 484.65 333.94 479.02 340.75 475.19 347.51 473.25 354.34 473.67 361.23 477 368.08 482.97 375.01 491.43 382.01 502.08 389 514.11 396.07 526.66 403.22 538.93 410.37 549.77 417.6 558.17 424.91 563.66 432.21 565.37 439.41 563.28 446.49 557.92 453.57 549.46 460.51 538.65 467.28 526.45 474.03 513.58 480.59 500.93 486.94 489.32 493.23 479.28 499.27 471.24 505.02 463.93 513.36 463.2 528.09 467.81 534.35 481 553.06 458.42 557.97 446.17 558.16 437.37 558.53 428.31 558.9 419.16 559.34 409.86 560.24 400.63 561.31 391.61 562.61 382.58 564.48 373.81 566.65 365.36 569.12 356.96 572.18 348.87 575.54 341.14 579.14 333.44 583.24 326.07 587.48 319.05 591.78 312.02 596.34 305.48 600.65 299.4 604.61 293.3 608.53 287.63 611.9 282.37 614.66 274.58 617.97 260.51 620 254 618.58 247.3 615.59 233.51 605.03 226 597.75 220.44 592.33 214.59 586.4 208.39 580.04 201.69 573.45 194.65 566.53 187.31 559.35 179.63 552.06 171.82 544.59 164 537.02 156.24 529.41 148.79 521.75 141.86 514.08 135.47 506.43 129.93 498.8 125.42 491.2 121.82 483.66 119.4 476.17 118.21 468.74 117.86 461.36 118.56 454.03 120.15 446.78 122.03 439.56 124.3 432.39 126.71 425.29 128.57 418.2 130.03 411.17 130.88 404.18 130.6 397.21 129.51 390.28 127.64 383.42 124.78 376.55 121.58 369.9 118.33 363.48 114.95 357.05 112.15 350.86 110.2 344.9 108.98 336.08 114.51 319.71 121.13 312.19 126.67 307.27 132.99 302.63 139.84 298.26 146.83 293.88 153.91 289.78 160.89 285.95 167.45 282.09 173.62 278.48 179.34 275.12 186.62 270.09 197.91 260.86 202.37 256.56 206.04 252.12 213.52 243.31 217.82 238.84 222.47 234 234.04 223.97 240.96 218.81 245.79 215.16 251.01 211.58 256.56 208.12 262.16 204.52 268.06 201.1 274.21 197.94 280.37 194.76 286.75 191.93 293.34 189.51" stroke-dasharray="8 3" transform="rotate(13.655172413793103, 320, 400)" opacity="0.80"></path><path d="M297.99 197.88C304.38 195.65 310.95 193.95 317.7 192.8 324.49 191.88 331.5 191.56 338.75 191.83 346.1 192.39 353.77 193.55 361.77 195.29 369.94 197.32 378.49 199.92 387.44 203.03 396.56 206.41 406.07 210.27 415.89 214.56 425.76 219.05 435.8 223.92 445.85 229.12 455.65 234.45 465.14 240.06 474.08 245.91 482.26 251.81 489.47 257.91 495.42 264.16 500.12 270.41 503.22 276.79 504.56 283.26 504.48 289.71 502.66 296.23 499.2 302.81 494.85 309.35 489.43 315.94 483.37 322.57 477.67 329.16 472.34 335.79 467.96 342.46 465.43 349.09 464.77 355.78 466.33 362.5 470.52 369.21 477.04 375.96 485.68 382.77 496.17 389.57 507.74 396.42 519.63 403.32 531.16 410.22 541.31 417.18 549.2 424.17 554.45 431.16 556.27 438.03 554.62 444.74 549.98 451.45 542.44 458 532.62 464.36 521.36 470.7 509.26 476.83 497.09 482.73 485.6 488.57 475.29 494.16 466.61 499.45 457.63 507.1 452.47 520.53 454.99 526.19 470.38 543.35 456.08 548.47 446.25 548.98 438.97 549.57 431.25 550.18 423.24 550.86 415 551.96 406.67 553.24 398.36 554.71 389.99 556.71 381.74 558.96 373.71 561.48 365.67 564.53 357.89 567.82 350.39 571.32 342.9 575.26 335.7 579.32 328.81 583.4 321.92 587.72 315.47 591.8 309.45 595.55 303.4 599.27 297.73 602.5 292.42 605.16 284.49 608.42 269.73 610.78 262.63 609.75 257.68 608.36 252.75 606.21 247.74 603.34 242.39 600.06 236.86 596.11 231.1 591.58 224.93 586.71 218.47 581.32 211.71 575.5 204.57 569.46 197.19 563.06 189.63 556.38 181.9 549.58 174.17 542.57 166.6 535.41 159.23 528.21 152.3 520.92 146.01 513.58 140.34 506.25 135.56 498.91 131.83 491.58 128.97 484.28 127.24 477.02 126.63 469.8 126.77 462.63 127.82 455.5 129.63 448.43 131.62 441.4 133.9 434.43 136.23 427.52 137.98 420.63 139.3 413.8 140.02 407.04 139.64 400.28 138.5 393.59 136.61 386.97 133.77 380.36 130.6 373.97 127.37 367.81 123.97 361.65 121.08 355.73 118.95 350.04 117.27 341.63 121.38 326.05 127.16 318.89 132.19 314.2 138.06 309.76 144.55 305.59 151.32 301.4 158.32 297.45 165.36 293.76 172.14 290.02 178.67 286.51 184.85 283.22 193.03 278.26 206.3 269.04 211.65 264.69 216.05 260.18 224.24 251.2 228.52 246.64 232.88 241.74 243.32 231.67 249.52 226.54 253.8 222.93 258.48 219.41 263.53 216.02 268.59 212.5 274.01 209.17 279.77 206.09 285.52 203.01 291.59 200.25 297.98 197.89" stroke-dasharray="1 3" transform="rotate(15.931034482758621, 320, 400)" opacity="0.77"></path><path d="M305.37 206.26C311.59 204.09 318.08 202.42 324.82 201.26 331.6 200.32 338.66 199.93 346.02 200.11 353.45 200.54 361.21 201.55 369.3 203.1 377.49 204.93 386.01 207.29 394.83 210.14 403.71 213.24 412.82 216.81 422.07 220.79 431.22 224.97 440.32 229.53 449.22 234.41 457.69 239.43 465.66 244.73 472.89 250.28 479.29 255.89 484.63 261.71 488.67 267.69 491.56 273.7 492.97 279.84 492.8 286.08 491.51 292.32 488.8 298.64 484.81 305.03 480.32 311.39 475.14 317.8 469.7 324.26 464.89 330.69 460.7 337.16 457.59 343.66 456.32 350.13 456.85 356.64 459.43 363.18 464.34 369.71 471.28 376.27 480.01 382.86 490.26 389.44 501.34 396.06 512.56 402.7 523.36 409.34 532.83 416 540.23 422.68 545.24 429.35 547.15 435.87 545.9 442.23 541.94 448.57 535.27 454.74 526.42 460.7 516.12 466.64 504.83 472.35 493.24 477.82 482.04 483.25 471.65 488.41 462.53 493.27 447.6 506.43 446.61 522.33 450.7 526.17 454.92 536.88 434.24 541.21 424.38 542.53 417.37 543.82 410.12 545.27 402.74 546.9 395.23 549 387.72 551.33 380.28 553.87 372.8 556.89 365.46 560.11 358.31 563.5 351.16 567.28 344.21 571.15 337.48 575.02 330.75 579.11 324.39 582.96 318.38 586.5 312.34 590.03 306.6 593.1 301.14 595.66 292.93 598.85 277.18 601.49 269.37 600.79 263.93 599.7 258.43 597.9 252.82 595.44 246.89 592.6 240.78 589.13 234.44 585.1 227.77 580.75 220.86 575.9 213.72 570.62 206.35 565.11 198.84 559.24 191.27 553.08 183.7 546.78 176.27 540.25 169.12 533.55 162.31 526.78 156.04 519.9 150.49 512.94 145.6 505.97 141.63 498.96 138.68 491.94 136.54 484.94 135.46 477.95 135.39 470.99 135.95 464.06 137.29 457.17 139.27 450.34 141.32 443.53 143.56 436.77 145.78 430.09 147.4 423.42 148.57 416.81 149.14 410.28 148.68 403.76 147.48 397.3 145.58 390.94 142.78 384.57 139.66 378.43 136.45 372.53 131.58 363.79 125.73 347.49 125.82 339.93 127.16 334.97 129.7 330.24 133.35 325.77 137.81 321.27 143.15 317.02 149.2 313.01 155.63 308.97 162.42 305.15 169.37 301.56 176.23 297.92 182.97 294.47 189.48 291.23 195.55 287.9 201.26 284.73 206.59 281.72 213.55 277.07 225.16 268.08 230.18 263.64 234.63 258.94 243.69 249.37 248.64 244.48 253.77 239.3 265.7 228.93 272.59 223.88 277.29 220.46 282.37 217.22 287.84 214.23 293.29 211.24 299.13 208.57 305.36 206.27" stroke-dasharray="9 4" transform="rotate(18.20689655172414, 320, 400)" opacity="0.74"></path><path d="M314.55 214.65C320.63 212.53 327.01 210.89 333.67 209.73 340.35 208.77 347.33 208.33 354.61 208.42 361.93 208.74 369.55 209.6 377.44 210.97 385.36 212.59 393.52 214.72 401.86 217.32 418.37 223.2 434.92 230.79 450.34 239.76 463.74 249.28 474.01 259.85 479.68 271.17 481.46 282.66 478.07 294.68 470.23 306.98 461.71 319.26 453.22 331.78 447.95 344.38 447.87 350.67 449.48 356.98 452.94 363.31 458.43 369.62 465.67 375.97 474.38 382.32 484.33 388.66 494.88 395.03 505.43 401.39 515.52 407.76 524.34 414.12 531.26 420.47 536.04 426.82 538 433.01 537.12 439 533.79 444.99 527.94 450.78 520.03 456.35 510.68 461.91 500.25 467.24 489.34 472.31 478.55 477.34 468.27 482.11 458.92 486.58 444.43 495.36 436 502.88 433.08 508.98 442.88 521.8 436.76 531.62 422.13 534.35 416.42 535.82 410.33 537.42 403.98 539.18 397.47 541.36 390.82 543.73 384.1 546.29 377.33 549.26 370.55 552.41 363.84 555.68 357.13 559.3 350.5 562.97 343.98 566.64 337.46 570.5 331.2 574.13 325.19 577.47 319.15 580.81 313.31 583.72 307.66 586.16 299.13 589.28 282.32 592.12 273.8 591.72 261.83 589.71 249.31 585.13 236.06 578.32 221.92 570.34 207.21 560.54 192.5 549.42 178.29 537.7 165.55 525.12 155.42 512.07 147.99 498.9 144.29 485.51 144.48 472.19 145.39 465.55 146.96 458.93 149.05 452.36 151.1 445.81 153.27 439.3 155.36 432.86 156.81 426.44 157.82 420.07 158.25 413.79 157.7 407.51 156.45 401.3 154.55 395.18 151.79 389.07 148.73 383.18 145.57 377.52 140.7 369.15 134.33 353.54 133.85 346.3 134.71 341.54 136.69 337.01 139.74 332.71 148.18 324.04 159.74 316.23 173.03 309.27 186.48 302.06 199.57 295.52 211.62 289.59 221.82 283.15 230.78 277.07 238.89 271.28 245.51 264.72 252.15 258.28 259.34 251.99 264.54 246.85 276.23 236.65 282.87 231.72 287.38 228.4 292.27 225.26 297.54 222.36 302.8 219.47 308.46 216.88 314.54 214.65" stroke-dasharray="7 9" transform="rotate(20.482758620689655, 320, 400)" opacity="0.71"></path><path d="M324.42 223.03C336.27 219.05 349.29 216.95 363.28 216.76 377.32 217.42 392.22 220.09 407.45 224.57 422.18 229.91 436.33 236.88 448.75 245.19 459.06 254.04 466.05 263.96 468.68 274.64 468.22 285.53 463.57 296.98 455.74 308.75 448.34 320.54 441.89 332.59 439.06 344.72 442.81 356.82 452.94 369.03 468.8 381.21 488.49 393.39 507.85 405.58 522.29 417.63 529.17 429.68 525.76 440.98 513.45 451.41 495.63 461.78 475.12 471.17 455.69 479.46 440.17 487.58 429.69 494.49 424.24 500.11 429.23 512.34 427.48 523.02 416.45 526.32 407.21 529.91 396.34 534.03 384.54 538.73 372.47 544.93 360.01 551.56 347.5 558.26 334.99 565.65 322.98 571.93 311.4 576.67 299.58 580.85 287.78 582.83 275.78 582.53 263.16 581.04 249.97 577.18 236.21 571.24 221.99 564.22 207.57 555.45 193.61 545.35 180.59 534.66 169.37 523.05 160.94 510.89 155.11 498.55 152.77 485.92 153.89 473.27 156.49 460.64 160.62 448.05 164.94 435.71 166.76 423.4 166.39 411.31 163.52 399.58 157.47 387.85 151.06 377 145.88 367.05 142.16 357.05 142.24 347.91 146.38 339.65 153.57 331.27 163.99 323.68 176.45 316.84 189.57 309.74 202.84 303.23 215.47 297.26 226.7 290.78 236.84 284.62 246.09 278.73 253.9 272.15 261.47 265.68 269.25 259.4 276.36 252.44 284.3 245.74 293.38 239.53 302.25 233.05 312.55 227.42 324.41 223.03" stroke-dasharray="7 2" transform="rotate(22.758620689655174, 320, 400)" opacity="0.67"></path><path d="M333.73 231.41C345.25 227.55 357.68 225.45 370.8 225.13 383.87 225.58 397.36 227.89 410.68 231.91 423.31 236.71 434.83 243.07 444.24 250.71 451.65 258.9 455.79 268.13 456.04 278.12 454.04 288.38 448.85 299.2 441.64 310.38 435.73 321.62 431.44 333.12 430.91 344.72 436.42 356.32 447.47 368 463.23 379.63 481.93 391.26 499.93 402.85 513.32 414.23 519.97 425.62 517.39 436.24 506.68 445.97 490.68 455.65 471.6 464.38 452.73 472.03 436.62 479.56 424.55 485.97 416.87 491.19 416.2 503.04 415.77 514.63 407.62 518.45 400.54 522.25 391.61 526.5 381.36 531.21 370.85 537.22 359.5 543.56 347.61 549.88 335.72 556.82 323.87 562.71 312.07 567.2 300.12 571.22 287.92 573.27 275.38 573.25 262.45 572.2 249.01 569 235.23 563.85 221.39 557.74 207.72 549.96 194.91 540.87 183.35 531.2 173.81 520.56 167.12 509.33 162.82 497.87 161.71 486.05 163.6 474.13 166.5 462.19 170.55 450.25 174.52 438.49 176 426.75 175.41 415.21 172.49 403.99 166.6 392.77 160.32 382.38 155.07 372.84 150.97 363.25 150.28 354.46 153.3 346.46 159.21 338.35 168.37 330.93 179.79 324.19 192.27 317.18 205.34 310.69 218.2 304.67 230.16 298.18 241.26 291.96 251.51 286 260.51 279.41 269.1 272.95 277.63 266.71 285.46 259.88 293.83 253.34 303.04 247.32 312.03 241.06 322.2 235.65 333.72 231.41" stroke-dasharray="1 8" transform="rotate(25.034482758620687, 320, 400)" opacity="0.64"></path><path d="M341.34 239.79C352.44 236.06 364.11 233.97 376.08 233.53 387.93 233.78 399.73 235.76 410.91 239.33 421.31 243.61 430.22 249.37 436.84 256.35 441.73 263.86 443.59 272.39 442.18 281.68 439.36 291.25 434.29 301.42 428.2 311.94 424.02 322.58 421.9 333.48 423.5 344.49 430.49 355.52 442.2 366.62 457.66 377.66 475.31 388.7 491.98 399.67 504.35 410.39 510.75 421.12 508.92 431.07 499.71 440.15 485.5 449.18 467.98 457.29 449.95 464.39 433.69 471.4 420.47 477.38 410.95 482.29 404.25 493.93 402.37 506.46 396.27 510.73 390.88 514.7 383.61 519.03 374.78 523.7 365.71 529.52 355.47 535.55 344.29 541.49 333.11 547.99 321.58 553.5 309.8 557.73 297.93 561.58 285.64 563.66 272.96 563.87 260.13 563.21 246.91 560.59 233.6 556.18 220.58 550.91 208.06 544.06 196.72 535.94 186.81 527.26 179.04 517.61 174.04 507.31 171.16 496.77 171.11 485.79 173.58 474.65 176.66 463.46 180.51 452.2 184.09 441.07 185.22 429.95 184.41 418.97 181.46 408.27 175.75 397.58 169.64 387.65 164.38 378.5 159.98 369.3 158.58 360.82 160.56 353.07 165.18 345.19 172.99 337.93 183.2 331.27 194.75 324.35 207.29 317.88 220.01 311.82 232.3 305.32 244.03 299.07 255.05 293.07 265.09 286.5 274.63 280.09 283.93 273.92 292.58 267.25 301.48 260.89 310.92 255.07 320.14 249.06 330.23 243.86 341.34 239.79" stroke-dasharray="10 2" transform="rotate(27.310344827586206, 320, 400)" opacity="0.61"></path><path d="M346.3 248.17C356.91 244.58 367.66 242.51 378.31 241.96 388.79 242.03 398.79 243.7 407.79 246.84 416.04 250.63 422.58 255.8 426.83 262.13 429.73 268.96 429.99 276.77 427.64 285.35 424.65 294.21 420.27 303.67 415.65 313.51 413.33 323.48 413.3 333.73 416.79 344.1 424.97 354.52 437.07 365 452.08 375.41 468.63 385.83 483.99 396.16 495.39 406.23 501.52 416.3 500.35 425.6 492.53 434.07 480.08 442.49 464.18 450.05 447.23 456.66 431.21 463.22 417.33 468.85 406.4 473.53 396.64 480.16 390.9 489.98 389.88 493.87 388.24 498.5 376.03 509.42 365.39 516.22 357.56 521.81 348.36 527.54 337.95 533.11 327.55 539.18 316.51 544.31 305.01 548.27 293.5 551.94 281.48 554.01 269.1 554.41 256.77 554.08 244.23 551.98 231.85 548.23 220.03 543.74 208.98 537.76 199.33 530.56 191.17 522.85 185.15 514.17 181.74 504.8 180.12 495.18 180.92 485.08 183.81 474.74 186.91 464.33 190.5 453.8 193.64 443.32 194.42 432.85 193.39 422.46 190.43 412.3 184.92 402.14 179.01 392.66 173.78 383.89 169.16 375.07 167.16 366.9 168.16 359.37 171.54 351.72 177.97 344.61 186.84 338.02 197.22 331.19 208.9 324.74 221.12 318.66 233.33 312.19 245.3 305.94 256.75 299.93 267.54 293.43 277.83 287.1 287.77 281.04 297.17 274.55 306.59 268.4 316.24 262.79 325.7 257.04 335.69 252.07 346.3 248.17" stroke-dasharray="2 1" transform="rotate(29.586206896551726, 320, 400)" opacity="0.57"></path><path d="M347.99 256.55C358.02 253.1 367.77 251.07 377.04 250.43 386.13 250.34 394.38 251.72 401.37 254.45 407.7 257.77 412.27 262.36 414.71 268.06 416.21 274.22 415.54 281.32 412.95 289.17 410.36 297.3 407.09 306.03 404.18 315.15 403.74 324.41 405.64 333.98 410.74 343.67 419.82 353.42 432.07 363.25 446.47 373 461.88 382.78 475.97 392.45 486.42 401.86 492.27 411.28 491.68 419.97 485.16 427.86 474.38 435.72 460.16 442.77 444.48 448.96 429.05 455.13 414.95 460.47 403.09 464.96 390.71 471.45 379.37 481.56 376.63 485.81 374.33 490.77 363.45 502.06 354.12 508.75 347.27 514.11 338.99 519.52 329.39 524.73 319.79 530.37 309.41 535.14 298.47 538.83 287.59 542.3 276.19 544.34 264.54 544.88 253.09 544.82 241.62 543.17 230.56 540.02 220.21 536.23 210.84 531.06 203 524.73 196.58 517.94 192.22 510.19 190.23 501.74 189.66 493.04 191.12 483.82 194.24 474.31 197.24 464.71 200.48 454.93 203.16 445.13 203.59 435.33 202.36 425.56 199.4 415.94 194.11 406.33 188.43 397.31 183.29 388.91 178.53 380.47 176.02 372.6 176.15 365.29 178.35 357.85 183.41 350.89 190.85 344.39 199.89 337.66 210.45 331.26 221.82 325.19 233.54 318.77 245.33 312.56 256.84 306.58 267.98 300.19 278.72 293.98 289.05 288.06 299 281.78 308.8 275.87 318.55 270.49 328.16 265.01 337.97 260.28 347.99 256.55" stroke-dasharray="10 4" transform="rotate(31.862068965517242, 320, 400)" opacity="0.54"></path><path d="M346.21 264.93C355.57 261.64 364.31 259.64 372.25 258.94 383.36 259.25 398.34 267.05 401.13 274.16 401.85 279.66 400.9 286.06 398.66 293.17 396.91 300.57 395.03 308.55 393.94 316.93 395.3 325.46 398.9 334.3 405.3 343.29 414.98 352.34 427.15 361.48 440.82 370.56 455.06 379.67 467.91 388.68 477.45 397.44 483 406.21 482.92 414.3 477.58 421.65 468.4 428.99 455.87 435.58 441.61 441.41 427.07 447.23 413.17 452.32 400.83 456.68 390.59 461.14 382.41 464.98 376.06 468.28 369.97 473.46 361.59 483.24 356.57 488.41 353.03 492.6 348.25 496.92 342.13 501.31 335.96 506.42 328.45 511.5 319.66 516.35 310.86 521.58 301.28 525.98 291.16 529.4 281.13 532.66 270.67 534.64 260.1 535.28 249.84 535.45 239.75 534.18 230.27 531.55 221.56 528.4 213.96 523.97 207.92 518.45 203.15 512.52 200.28 505.66 199.49 498.1 199.75 490.31 201.66 481.97 204.82 473.28 207.62 464.5 210.44 455.48 212.63 446.39 212.72 437.28 211.31 428.14 208.37 419.08 203.32 410.03 197.89 401.48 192.9 393.46 188.08 385.41 185.17 377.83 184.54 370.75 185.66 363.55 189.39 356.75 195.4 350.35 202.98 343.74 212.2 337.42 222.45 331.39 233.3 325.06 244.51 318.93 255.67 313.03 266.74 306.78 277.54 300.73 287.96 294.99 298.15 288.95 308.08 283.29 317.76 278.16 327.35 272.96 336.86 268.48 346.21 264.93" stroke-dasharray="10 11" transform="rotate(34.13793103448276, 320, 400)" opacity="0.51"></path><path d="M341.18 273.31C349.81 270.18 357.57 268.24 364.32 267.47 373.64 267.54 385.15 274.18 386.9 280.44 387.39 285.29 386.72 291.01 385.29 297.4 384.67 304.06 384.34 311.28 385.03 318.92 388.01 326.7 393.03 334.8 400.41 343.05 410.4 351.38 422.27 359.82 435.11 368.21 448.17 376.63 459.81 384.97 468.48 393.1 473.72 401.23 474.06 408.75 469.8 415.59 462.12 422.43 451.26 428.61 438.51 434.11 425.1 439.63 411.77 444.51 399.41 448.76 388.5 453.13 379.2 456.98 371.49 460.37 362.96 465.72 350.84 475.93 344.97 481.25 341.13 485.41 336.41 489.65 330.65 493.88 324.88 498.72 317.99 503.48 309.97 507.97 301.95 512.79 293.26 516.83 284.14 519.98 275.13 523.03 265.85 524.92 256.61 525.64 247.73 525.97 239.21 525.02 231.44 522.86 224.42 520.26 218.55 516.5 214.21 511.73 210.91 506.6 209.3 500.59 209.46 493.88 210.31 486.96 212.45 479.48 215.5 471.61 217.99 463.65 220.35 455.4 222.05 447.01 221.81 438.61 220.24 430.11 217.34 421.63 212.54 413.15 207.4 405.07 202.59 397.45 197.8 389.79 194.59 382.53 193.34 375.68 193.5 368.73 195.99 362.12 200.6 355.85 206.68 349.39 214.43 343.19 223.35 337.25 233.03 331.05 243.29 325.04 253.72 319.27 264.3 313.21 274.76 307.36 284.9 301.82 294.98 296.06 304.75 290.67 314.13 285.8 323.49 280.9 332.54 276.67 341.18 273.31" stroke-dasharray="10 4" transform="rotate(36.41379310344828, 320, 400)" opacity="0.48"></path><path d="M333.51 281.69C344.82 277.79 361.95 275.9 367.38 277.89 371.3 281.46 373.55 293.68 373.25 301.9 373.92 307.82 375.15 314.3 377.47 321.18 381.83 328.2 387.96 335.55 395.99 343.07 406.04 350.67 417.42 358.38 429.34 366.08 441.21 373.81 451.69 381.48 459.52 388.99 464.43 396.49 465.12 403.44 461.81 409.81 455.53 416.18 446.28 421.97 435.1 427.18 423.01 432.41 410.57 437.1 398.59 441.26 387.5 445.55 377.56 449.4 368.9 452.86 361.57 456.58 355.25 460.06 349.67 463.33 344.95 467.02 340.41 470.64 335.72 474.21 331.34 478.3 326.43 482.41 320.82 486.47 315.24 491.02 308.81 495.45 301.53 499.59 294.24 504.01 286.48 507.7 278.46 510.59 270.56 513.4 262.59 515.2 254.82 515.94 243.95 516.06 226.89 510.26 221.9 504.58 219.83 500.19 219.22 494.96 220.05 489.06 221.25 482.97 223.43 476.32 226.23 469.25 228.32 462.09 230.19 454.61 231.41 446.94 230.86 439.24 229.15 431.39 226.31 423.5 221.78 415.6 216.95 408.02 212.38 400.8 207.69 393.56 204.29 386.63 202.54 380.04 201.89 373.37 203.28 366.98 206.57 360.87 211.17 354.61 217.41 348.57 224.87 342.76 233.15 336.74 242.19 330.91 251.57 325.31 261.26 319.47 271 313.86 280.54 308.57 290.12 303.1 299.43 298.01 308.29 293.42 317.18 288.82 325.64 284.85 333.51 281.69" stroke-dasharray="8 4" transform="rotate(38.68965517241379, 320, 400)" opacity="0.44"></path><path d="M324.17 290.07C334.33 286.39 349.33 284.32 354.08 285.91 357.76 288.9 361.47 299.46 362.9 306.67 364.88 311.89 367.54 317.63 371.26 323.77 376.7 330.04 383.6 336.64 391.97 343.42 401.81 350.27 412.54 357.26 423.46 364.27 434.16 371.3 443.53 378.32 450.55 385.2 455.12 392.09 456.1 398.51 453.64 404.42 448.62 410.34 440.91 415.77 431.3 420.69 420.66 425.66 409.36 430.17 398.1 434.24 387.28 438.43 377.19 442.27 368.04 445.78 359.86 449.52 352.56 453.06 346.01 456.4 340.21 460.11 334.75 463.74 329.42 467.28 324.42 471.27 319.2 475.22 313.6 479.07 308.06 483.32 302 487.42 295.37 491.21 288.75 495.23 281.91 498.59 275.03 501.21 268.25 503.79 261.59 505.47 255.3 506.22 240.33 504.19 229.86 491.06 231.13 483.66 232.47 478.35 234.51 472.48 236.93 466.19 238.58 459.81 239.94 453.08 240.69 446.11 239.86 439.12 238.05 431.93 235.28 424.63 231.03 417.33 226.53 410.26 222.23 403.47 217.72 396.66 214.25 390.09 212.13 383.8 210.83 377.44 211.27 371.3 213.38 365.4 216.6 359.38 221.34 353.55 227.31 347.93 234.08 342.14 241.7 336.52 249.81 331.14 258.32 325.58 267.02 320.25 275.65 315.23 284.42 310.09 292.97 305.31 301.12 301.02 309.32 296.73 317.06 293.03 324.17 290.07" stroke-dasharray="2 10" transform="rotate(40.96551724137931, 320, 400)" opacity="0.41"></path><path d="M314.31 298.45C330.17 293.9 345.42 296.5 348.17 300.48 351.26 305.5 359.56 318.82 366.32 326.76 372.51 332.29 379.85 338.14 388.25 344.19 397.67 350.31 407.62 356.58 417.5 362.9 427.04 369.25 435.33 375.6 441.58 381.88 445.81 388.16 447 394.06 445.27 399.53 441.39 405 435.12 410.08 427.05 414.74 417.92 419.44 407.93 423.77 397.69 427.74 387.53 431.82 377.72 435.61 368.54 439.12 359.99 442.84 352.14 446.38 344.96 449.75 338.36 453.42 332.2 457 326.34 460.48 320.78 464.31 315.24 468.06 309.62 471.68 304.08 475.62 298.3 479.38 292.28 482.83 286.25 486.47 280.28 489.5 274.48 491.85 250.84 494.56 240.95 484.07 242.57 477.69 244.72 470.54 249.15 453.79 249.89 444.52 248.81 438.22 246.92 431.69 244.25 424.99 240.3 418.3 236.15 411.75 232.16 405.42 227.89 399.07 224.45 392.89 222.1 386.94 220.32 380.92 219.99 375.08 221.09 369.45 223.07 363.71 226.43 358.13 230.94 352.76 236.18 347.25 242.31 341.9 249.02 336.79 256.15 331.54 263.61 326.52 271.12 321.81 278.81 317.01 286.4 312.57 293.67 308.59 301.01 304.62 307.94 301.2 314.31 298.45" stroke-dasharray="1 1" transform="rotate(43.241379310344826, 320, 400)" opacity="0.38"></path><path d="M305.15 306.83C316.47 302.18 324.85 300.76 330.63 302.29 336.96 304.65 342.23 309.84 348.05 317.19 357.14 325.13 369.36 334.81 384.74 345.45 402.74 356.3 420.26 367.76 432.61 379.13 438.48 390.5 434.24 400.65 422.29 409.39 406.27 418.28 387.76 426.12 369.97 432.9 353.53 440.37 339 447.37 326.41 453.77 314.78 461.31 303.58 468.43 292.62 474.45 281.66 481.09 271.89 485.25 264.18 486.73 255 486.73 253.35 471.57 258.04 457.97 258.49 448.07 257.09 436.74 253.22 424.58 245.07 412.41 237.46 400.56 232.41 389.44 228.79 378.16 230.16 367.31 235.95 357.26 244.18 346.81 255.42 336.97 267.77 328.32 280.91 319.43 293.84 311.97 305.15 306.83" stroke-dasharray="6 6" transform="rotate(45.51724137931035, 320, 400)" opacity="0.34"></path><path d="M297.84 315.21C307.84 310.94 315.85 309.5 322.22 310.65 329.22 312.45 335.98 316.74 343.63 322.97 353.86 329.67 366.6 338 381.37 347.27 397.63 356.71 412.93 366.83 423.64 377.03 429.17 387.23 426.37 396.51 416.98 404.68 403.9 412.99 387.94 420.49 371.84 427.11 356.2 434.29 341.81 441.04 329.22 447.16 317.31 454.17 306.32 460.68 296.36 466.07 273.92 475.5 265.01 464.59 268.31 452.86 267.92 444.3 265.99 434.32 262.19 423.39 254.81 412.45 247.91 401.64 243.04 391.34 238.91 380.93 238.8 370.84 242.47 361.45 248.01 351.79 256.46 342.71 266.36 334.75 276.95 326.66 287.84 319.89 297.84 315.21" stroke-dasharray="10 8" transform="rotate(47.793103448275865, 320, 400)" opacity="0.31"></path><path d="M293.28 323.6C302.06 319.71 309.82 318.29 316.77 319.12 324.32 320.43 332.21 323.91 341.05 329.11 351.77 334.67 364.34 341.71 378.02 349.68 392.37 357.78 405.51 366.6 414.67 375.65 419.79 384.69 418.18 393.1 411.08 400.65 400.81 408.33 387.6 415.39 373.65 421.73 359.56 428.52 346.09 434.9 334.11 440.65 322.52 447.05 312.04 452.92 303.04 457.69 283.89 466.02 276.51 457.16 278.3 447.17 277.17 439.85 274.84 431.16 271.15 421.47 264.58 411.78 258.45 402.03 253.92 392.65 249.63 383.2 248.49 373.97 250.5 365.36 253.8 356.57 259.77 348.32 267.4 341.13 275.57 333.86 284.49 327.8 293.28 323.6" stroke-dasharray="2 2" transform="rotate(50.068965517241374, 320, 400)" opacity="0.28"></path><path d="M292.03 331.98C299.69 328.5 307.16 327.14 314.48 327.69 322.27 328.6 330.73 331.36 340.06 335.62 350.61 340.14 362.41 345.99 374.61 352.72 386.96 359.56 398 367.12 405.7 375.03 410.35 382.94 409.68 390.44 404.57 397.31 396.89 404.29 386.44 410.83 374.92 416.76 362.9 423.03 350.99 428.93 340.16 434.21 329.49 439.96 319.87 445.15 311.82 449.31 295.13 456.52 287.66 449.36 287.97 440.95 286.22 434.78 283.61 427.33 280.12 418.88 274.36 410.43 269.05 401.81 265.01 393.43 260.87 385.01 259.15 376.74 259.97 369.01 261.57 361.17 265.52 353.83 271.18 347.44 277.23 341.04 284.37 335.7 292.03 331.98" stroke-dasharray="5 11" transform="rotate(52.3448275862069, 320, 400)" opacity="0.25"></path><path d="M294.25 340.36C300.86 337.32 307.87 336.05 315.17 336.38 322.79 336.96 331.21 339.09 340.3 342.5 350.08 346.09 360.61 350.83 371.07 356.41 381.36 362.05 390.4 368.41 396.73 375.19 400.85 381.97 400.89 388.53 397.44 394.66 392.05 400.86 384.22 406.76 375.2 412.17 365.57 417.81 355.66 423.12 346.39 427.84 337.13 432.89 328.68 437.39 321.61 440.93 306.81 447 298.27 441.25 297.26 434.29 295.06 429.17 292.32 422.9 289.09 415.7 284.15 408.49 279.7 401.05 276.26 393.75 272.52 386.43 270.62 379.21 270.7 372.44 271.17 365.62 273.61 359.24 277.72 353.7 282.03 348.18 287.65 343.58 294.25 340.36" stroke-dasharray="10 8" transform="rotate(54.62068965517241, 320, 400)" opacity="0.21"></path><path d="M299.67 348.74C310.83 343.74 325.35 344.54 341.36 349.73 358.56 355.39 376.46 364.81 387.76 376.13 393.13 387.44 386.74 398.57 374.13 407.93 359.27 417.9 343.26 426.87 331.21 432.54 319.15 438.81 312.81 439.91 310.77 436.32 306.41 432.49 302.44 423.97 298.06 412.02 288.87 400.07 282.93 387.1 282.42 375.68 282.37 364.19 288.51 354.25 299.67 348.74" stroke-dasharray="3 11" transform="rotate(56.89655172413793, 320, 400)" opacity="0.18"></path><path d="M307.62 357.12C316.72 353.01 329.26 353.42 342.76 357.31 356.55 361.47 370.28 368.73 378.79 377.81 383.55 386.88 379.96 396.11 371.44 404 361.2 412.26 349.23 419.62 339.41 424.16 329.58 429.09 323.5 429.91 320.35 427.07 315.53 424.12 311.07 417.47 307.03 407.97 299.81 398.47 295.3 388.02 294.82 378.78 294.2 369.54 298.51 361.56 307.62 357.12" stroke-dasharray="9 9" transform="rotate(59.17241379310345, 320, 400)" opacity="0.15"></path><path d="M317.09 365.5C324.08 362.34 333.85 362.48 344.04 365.22 354.13 368.09 363.84 373.35 369.82 380.19 373.72 387.02 372.13 394.16 366.96 400.35 360.74 406.73 352.67 412.37 345.2 415.78 334.96 419.68 321.62 413.21 316 403.68 310.71 396.59 307.64 388.74 307.47 381.77 306.98 374.84 310.1 368.86 317.09 365.5" stroke-dasharray="4 8" transform="rotate(61.44827586206896, 320, 400)" opacity="0.12"></path><path d="M326.93 373.88C336.47 369.67 352.66 374.03 360.85 383.18 365.43 392.32 357.88 402.97 347.87 407.4 337.84 412.21 329.19 408.63 324.97 399.26 317.43 389.88 317.39 378.45 326.93 373.88" stroke-dasharray="12 10" transform="rotate(63.724137931034484, 320, 400)" opacity="0.08"></path></g></svg>